<svg width="74" height="65" viewBox="0 0 74 65" fill="none" xmlns="http://www.w3.org/2000/svg">
<g filter="url(#filter0_d_7_263)">
<path d="M14.1145 2.04213C21.6097 -0.895176 30.4666 1.77964 32.7798 9.49034C33.9693 13.2077 34.5641 17.3712 34.5641 21.9807C34.5641 29.7128 32.7054 36.8501 28.9881 43.3927C26.609 47.6018 23.6387 51.5857 20.0771 55.3444C15.9547 59.695 9.2978 59.9757 4.2304 56.7752C3.94721 56.5729 3.69705 56.3872 3.47991 56.2179C2.71881 55.6247 2.24038 54.7655 2.06531 53.8165C2.02177 53.5806 2 53.3772 2 53.2066C2 51.8683 2.52042 50.6787 3.56129 49.6379L6.68386 46.0692C7.42733 45.177 8.39385 43.5414 9.58341 41.1623C10.773 38.9319 11.5165 36.9988 11.8138 35.3632C12.4086 32.6867 12.706 30.4563 12.706 28.6719C12.706 26.1441 12.2599 23.4676 11.3678 20.6424C10.1782 16.9251 8.83995 13.8768 7.35301 11.4977C6.60953 10.4569 6.23777 9.49035 6.23777 8.59817C6.23777 6.07037 7.65038 4.36038 10.4756 3.46821L14.1145 2.04213ZM51.1395 2.04214C58.6347 -0.89517 67.4915 1.77964 69.8047 9.49034C70.9943 13.2077 71.5891 17.3712 71.5891 21.9807C71.5891 29.7128 69.7304 36.8501 66.013 43.3927C63.663 47.5505 60.736 51.4886 57.2321 55.2068C53.0345 59.6612 46.2449 59.983 41.0323 56.7752C40.1401 56.1804 39.6197 55.66 39.471 55.2139C39.1736 54.3218 39.0249 53.727 39.0249 53.4296C39.0249 52.0913 39.5454 50.9018 40.5862 49.8609L43.7088 46.0692C44.4523 45.177 45.4188 43.5414 46.6084 41.1623C47.7979 38.9319 48.5414 36.9988 48.8388 35.3632C49.2848 33.2815 49.5079 31.0511 49.5079 28.6719C49.5079 25.698 49.1362 23.0215 48.3927 20.6424C47.2032 16.9251 45.8649 13.8768 44.3779 11.4977C43.6345 10.4569 43.2627 9.49035 43.2627 8.59817C43.2627 6.07037 44.6753 4.36038 47.5005 3.46821L51.1395 2.04214Z" fill="#FA6900"/>
</g>
<defs>
<filter id="filter0_d_7_263" x="0" y="0.878578" width="73.5891" height="63.4481" filterUnits="userSpaceOnUse" color-interpolation-filters="sRGB">
<feFlood flood-opacity="0" result="BackgroundImageFix"/>
<feColorMatrix in="SourceAlpha" type="matrix" values="0 0 0 0 0 0 0 0 0 0 0 0 0 0 0 0 0 0 127 0" result="hardAlpha"/>
<feOffset dy="3.39871"/>
<feGaussianBlur stdDeviation="1"/>
<feComposite in2="hardAlpha" operator="out"/>
<feColorMatrix type="matrix" values="0 0 0 0 0.121569 0 0 0 0 0.341176 0 0 0 0 0.627451 0 0 0 0.12 0"/>
<feBlend mode="normal" in2="BackgroundImageFix" result="effect1_dropShadow_7_263"/>
<feBlend mode="normal" in="SourceGraphic" in2="effect1_dropShadow_7_263" result="shape"/>
</filter>
</defs>
</svg>
